<svg width="29" height="40" viewBox="0 0 29 40" fill="none" xmlns="http://www.w3.org/2000/svg">
<path fill-rule="evenodd" clip-rule="evenodd" d="M16.3968 23.9702C18.3579 23.3073 20.1106 22.2918 21.6638 20.9332C19.6267 21.4523 17.9328 22.5754 16.3968 23.9702ZM14.5441 28.4917C16.5702 28.8575 18.9924 28.4034 21.2749 27.1802C22.709 26.4114 23.9496 25.4031 24.7974 23.9871C25.2476 23.237 25.4717 22.4216 25.0324 21.568C24.6286 20.7836 24.3097 20.7248 23.6473 21.2862C20.9407 23.5822 17.9297 25.3113 14.4592 26.1677C13.9905 26.283 13.7105 26.5699 13.4421 26.9274C12.5917 28.0619 12.6016 28.0972 14.5431 28.4923M9.51378 22.9521C9.39942 23.3253 9.40257 24.021 9.58339 24.7163C9.64799 24.9622 9.67539 25.3581 9.97968 25.3271C11.1833 25.2056 12.5106 25.5936 13.481 24.4515C14.2956 23.4933 15.2514 22.6677 16.2793 21.9459C18.4896 20.3923 20.7512 18.9451 23.632 19.085C23.7631 19.0917 23.9395 19.0338 24.0256 18.9417C25.3865 17.4854 26.7389 16.008 27.0108 13.911C27.2184 12.311 26.1821 11.1187 24.5634 11.0186C22.9392 10.9182 21.4379 11.3875 20.0078 12.0783C16.2677 13.8856 13.351 16.6568 10.93 19.9875C10.3452 20.7927 9.85655 21.6558 9.51378 22.9521ZM24.397 37.5726C24.458 37.7189 24.461 37.7502 24.478 37.763C24.7999 37.9929 25.542 37.8198 25.4207 38.4171C25.324 38.8956 24.6832 38.8999 24.2186 38.9387C24.0186 38.9552 23.7574 38.9782 23.6187 38.8736C22.7923 38.246 22.0197 38.6858 21.2269 38.9222C20.6088 39.1063 19.9742 39.2072 19.324 39.1735C17.926 39.0998 17.225 37.9902 17.804 36.7091C18.054 36.1547 18.4093 35.6488 18.7651 35.0376C17.7403 35.0341 16.7698 35.1683 15.7984 35.0599C14.5015 34.9149 13.2593 34.6165 12.1719 33.8532C10.645 32.7832 10.012 31.1909 10.4617 29.4023C10.6038 28.8373 10.4144 28.5597 10.071 28.1265C9.15738 26.9757 7.97047 26.701 6.60917 26.4489C1.88387 25.5741 -1.0122 21.8626 0.328458 16.8446C0.646977 15.6541 1.09247 14.5083 1.68294 13.4277C3.9682 9.24758 6.65526 5.37738 10.3132 2.26903C11.295 1.43469 12.3409 0.685043 13.5683 0.241342C15.3282 -0.395071 16.7605 0.238632 17.3396 2.00712C17.9435 3.85296 17.7981 5.76244 17.6406 7.65981C17.6352 7.72585 17.5451 7.78496 17.4698 7.87866C17.0924 7.61018 17.2355 7.21677 17.2145 6.90591C17.1296 5.62091 17.1003 4.32765 16.7469 3.07927C16.2105 1.18527 15.1844 0.746988 13.4611 1.66264C12.2394 2.31195 11.1765 3.18618 10.2065 4.16118C6.67228 7.71644 3.75668 11.7199 1.97202 16.4362C0.168607 21.2018 3.06776 24.4916 7.35468 25.2038C7.82802 25.2827 8.08982 25.257 7.96283 24.6C7.63981 22.9279 8.13515 21.3789 9.01956 20.0012C11.7632 15.7265 15.3324 12.3503 20.0273 10.3054C21.8379 9.51656 23.7394 9.06297 25.7454 9.65341C27.5629 10.1884 28.7265 11.931 28.5347 13.8142C28.3221 15.9052 27.225 17.5392 25.8833 19.0349C25.4741 19.4906 25.4282 19.7291 25.8795 20.2257C26.9204 21.3712 26.9387 22.7325 26.3409 24.0894C25.6074 25.7514 24.3258 26.9506 22.833 27.9062C19.6554 29.9414 16.2387 30.6601 12.5458 29.525C12.0543 29.3736 11.9181 29.5189 11.8612 29.9651C11.7172 31.102 12.2501 32.2009 13.3838 32.8144C15.6631 34.0486 18.0202 33.7574 20.3692 33.0772C20.6249 33.0032 20.8301 32.7312 21.0386 32.5296C21.8391 31.7561 22.6861 31.0427 23.6286 30.4489C24.1743 30.1052 24.7403 29.8001 25.3603 29.6155C26.0009 29.4241 26.6933 29.3122 27.0698 30.0215C27.4385 30.7182 26.9073 31.1722 26.4227 31.5669C25.2367 32.5315 23.9262 33.2987 22.5118 33.8702C20.9568 34.4991 20.2861 35.9475 19.383 37.1805C19.1838 37.4526 19.3308 37.6404 19.6585 37.594C20.8751 37.4221 22.103 37.2552 23.0179 36.3108C24.1531 35.1393 25.4932 34.2751 26.9813 33.6291C27.1945 33.5362 27.4148 33.4488 27.6416 33.3982C28.1626 33.2813 28.6589 33.3187 28.9126 33.8802C29.1487 34.4051 28.8701 34.7847 28.4662 35.0824C27.4072 35.8629 26.2999 36.5693 25.1544 37.2156C24.9061 37.3559 24.6385 37.4614 24.3989 37.5745" fill="black"/>
</svg>
