<svg width="24" height="24" viewBox="0 0 24 24" fill="none" xmlns="http://www.w3.org/2000/svg">
  <!-- 三つ巴（みつどもえ）をイメージした武道的なシンボル -->
  <g fill="#838383" opacity="0.9">
    <!-- 中心の円 -->
    <circle cx="12" cy="12" r="2" fill="#838383"/>

    <!-- 三つの勾玉的な形状 -->
    <path d="M12 4C13.5 4 15 5.5 15 7C15 8.5 13.5 10 12 10C10.5 10 12 8.5 12 7C12 5.5 12 4 12 4Z"
          transform="rotate(0 12 12)"/>
    <path d="M12 4C13.5 4 15 5.5 15 7C15 8.5 13.5 10 12 10C10.5 10 12 8.5 12 7C12 5.5 12 4 12 4Z"
          transform="rotate(120 12 12)"/>
    <path d="M12 4C13.5 4 15 5.5 15 7C15 8.5 13.5 10 12 10C10.5 10 12 8.5 12 7C12 5.5 12 4 12 4Z"
          transform="rotate(240 12 12)"/>

    <!-- 外側の円環（結界をイメージ） -->
    <circle cx="12" cy="12" r="9" fill="none" stroke="#838383" stroke-width="1.5" opacity="0.6"/>
    <circle cx="12" cy="12" r="7" fill="none" stroke="#838383" stroke-width="1" opacity="0.4"/>
  </g>
</svg>
