<svg width="24" height="24" viewBox="0 0 24 24" fill="none" xmlns="http://www.w3.org/2000/svg">
  <path
    d="M19.14 12.9361C19.18 12.6392 19.2 12.3237 19.2 12C19.2 11.6763 19.18 11.3608 19.14 11.0639L21.14 9.53195C21.318 9.39894 21.3826 9.16712 21.2973 8.96516L19.6973 5.03484C19.612 4.83288 19.392 4.72843 19.1787 4.79777L16.7587 5.59777C16.2587 5.21927 15.72 4.9023 15.144 4.65928L14.784 2.09777C14.748 1.88213 14.556 1.72843 14.34 1.72843H9.66C9.444 1.72843 9.252 1.88213 9.216 2.09777L8.856 4.65928C8.28 4.9023 7.74127 5.21927 7.24127 5.59777L4.82133 4.79777C4.608 4.72843 4.388 4.83288 4.30267 5.03484L2.70267 8.96516C2.61733 9.16712 2.682 9.39894 2.86 9.53195L4.86 11.0639C4.82 11.3608 4.8 11.6763 4.8 12C4.8 12.3237 4.82 12.6392 4.86 12.9361L2.86 14.468C2.682 14.601 2.61733 14.8329 2.70267 15.0348L4.30267 18.9652C4.388 19.1671 4.608 19.2716 4.82133 19.2022L7.24127 18.4022C7.74127 18.7807 8.28 19.0977 8.856 19.3407L9.216 21.9022C9.252 22.1179 9.444 22.2716 9.66 22.2716H14.34C14.556 22.2716 14.748 22.1179 14.784 21.9022L15.144 19.3407C15.72 19.0977 16.2587 18.7807 16.7587 18.4022L19.1787 19.2022C19.392 19.2716 19.612 19.1671 19.6973 18.9652L21.2973 15.0348C21.3826 14.8329 21.318 14.601 21.14 14.468L19.14 12.9361ZM12 15.6C10.0113 15.6 8.4 13.9887 8.4 12C8.4 10.0113 10.0113 8.4 12 8.4C13.9887 8.4 15.6 10.0113 15.6 12C15.6 13.9887 13.9887 15.6 12 15.6Z"
    fill="#5143D0"
  />
</svg>
