<svg xmlns="http://www.w3.org/2000/svg" viewBox="0 0 512 512">
<g transform="translate(0,512) scale(0.1,-0.1)" fill="#000000">
<path d="M2341 4569 c-46 -4 -96 -13 -110 -18 -14 -6 -70 -20 -125 -32 -206
-44 -414 -131 -591 -248 -38 -25 -77 -46 -85 -46 -8 0 -15 -5 -15 -11 0 -11
-98 -94 -111 -94 -4 0 0 8 7 18 15 19 -33 -21 -103 -87 -26 -24 -45 -47 -43
-51 2 -4 -17 -31 -44 -61 -26 -30 -67 -79 -90 -109 -24 -30 -47 -55 -51 -55
-5 0 -12 -4 -17 -9 -5 -5 -3 -6 5 -2 18 11 15 -9 -5 -25 -14 -12 -16 -12 -8 0
6 10 4 12 -4 7 -7 -5 -10 -14 -7 -22 3 -8 0 -13 -6 -11 -21 4 -154 -270 -207
-427 -69 -207 -79 -256 -92 -451 -19 -272 19 -581 97 -807 75 -215 229 -478
383 -654 89 -103 292 -283 394 -352 171 -114 401 -200 557 -209 92 -5 97 -4
154 26 54 29 134 103 137 126 1 5 3 28 5 50 2 22 6 56 9 75 5 28 1 43 -19 73
-14 21 -26 46 -26 56 0 27 -58 80 -101 91 -20 6 -39 17 -42 25 -9 22 -56 42
-142 60 -204 42 -377 125 -549 264 -208 168 -334 391 -403 720 -23 108 -27
151 -27 296 -1 190 14 294 65 460 44 141 79 220 148 330 192 305 455 513 788
625 173 58 278 74 473 74 187 0 278 -14 455 -71 161 -52 292 -117 461 -231
174 -116 275 -216 379 -372 65 -98 172 -302 205 -394 51 -140 82 -362 74 -536
-3 -76 -2 -80 7 -40 15 66 3 336 -21 454 -11 55 -18 101 -16 103 11 11 51
-225 60 -348 11 -152 -26 -407 -84 -573 -11 -33 -18 -61 -16 -63 2 -2 12 20
22 49 44 129 53 152 53 133 1 -36 -49 -182 -101 -295 -11 -25 -27 -60 -35 -78
-7 -17 -18 -32 -23 -32 -13 0 -13 13 -1 26 6 5 17 27 26 48 l17 40 -24 -16
c-12 -8 -31 -37 -40 -63 -21 -58 -116 -219 -177 -300 -104 -138 -336 -339
-541 -468 -41 -27 -75 -53 -75 -59 0 -7 -27 -23 -60 -36 -33 -13 -61 -28 -63
-32 -2 -5 -11 -7 -20 -4 -14 5 -14 4 1 -6 10 -6 25 -9 33 -6 10 4 12 2 8 -6
-5 -8 -1 -9 12 -4 10 4 46 16 79 27 32 12 72 27 88 36 16 8 27 11 24 6 -3 -5
-28 -20 -56 -33 -28 -13 -51 -27 -51 -31 0 -5 -7 -5 -17 -2 -12 5 -14 3 -8 -7
5 -9 4 -11 -3 -6 -7 4 -31 -5 -54 -19 -39 -23 -40 -25 -13 -19 36 8 131 47
199 81 26 13 45 20 41 14 -10 -17 -1 -14 95 38 80 44 88 47 69 23 -11 -15 -57
-48 -102 -74 -96 -56 -96 -60 -1 -16 136 63 375 231 513 362 30 28 46 39 35
25 -19 -26 -143 -143 -224 -212 -44 -37 -44 -38 -5 -10 64 44 103 78 214 186
229 224 360 437 473 767 156 458 97 1029 -148 1448 -37 63 -40 45 -5 -29 43
-94 82 -191 78 -196 -3 -2 -10 11 -17 29 -114 285 -336 577 -575 755 -169 126
-444 273 -621 332 -49 17 -83 30 -75 30 25 1 224 -69 310 -110 117 -56 151
-70 151 -64 0 7 -188 101 -252 126 -27 11 -120 37 -207 59 -232 59 -485 86
-650 69z m-1076 -490 c-22 -22 -53 -50 -70 -61 -16 -11 -1 8 35 41 74 70 93
81 35 20z m2690 -690 c9 -17 15 -33 13 -35 -3 -2 -12 12 -21 31 -21 43 -13 47
8 4z m186 -1010 l-11 -34 5 34 c3 18 6 45 6 60 l2 26 4 -26 c2 -15 -1 -42 -6
-60z M2862 3563 c-55 -19 -64 -40 -29 -65 l27 -20 0 -298 0 -299 -25 -19 c-34
-27 -33 -59 3 -66 43 -8 193 -5 218 5 33 12 30 35 -6 54 -38 19 -50 50 -50
121 0 38 4 54 13 54 8 0 51 -50 97 -111 45 -61 93 -115 107 -120 52 -20 137
-5 149 26 4 9 -34 57 -110 137 -64 68 -116 130 -116 139 0 14 71 71 151 121
32 19 45 53 30 72 -11 14 -180 29 -207 19 -19 -7 -18 -42 1 -49 30 -12 15 -44
-42 -89 -32 -25 -61 -45 -64 -45 -3 0 -4 94 -1 210 4 160 2 213 -8 225 -16 19
-81 18 -138 -2z M2000 3543 c-36 -14 -72 -32 -80 -39 -13 -13 -11 -17 14 -38
37 -29 36 -33 -61 -246 -137 -299 -158 -337 -203 -360 -44 -22 -51 -43 -21
-60 25 -13 231 -13 265 0 36 13 32 37 -9 57 -28 13 -35 23 -35 45 0 45 30 108
54 113 11 3 73 4 136 3 l115 -3 18 -38 c10 -21 20 -51 24 -67 5 -26 1 -32 -31
-51 -77 -45 -37 -67 124 -67 157 -1 185 19 117 82 -33 31 -32 28 -249 614 -14
37 -28 57 -48 67 -39 20 -54 19 -130 -12z m90 -308 c17 -49 33 -95 35 -102 2
-6 -3 -14 -11 -17 -17 -7 -164 -8 -164 -2 0 2 16 43 36 92 20 49 40 100 45
113 13 33 21 21 59 -84z M2592 3525 c-54 -23 -65 -91 -21 -131 25 -22 93 -22
119 1 38 35 27 106 -21 130 -34 18 -35 18 -77 0z M3461 3504 c-44 -57 -7 -129
65 -127 72 2 107 71 63 127 -16 21 -29 26 -64 26 -35 0 -48 -5 -64 -26z M2555
3282 c-60 -21 -69 -44 -26 -67 17 -8 33 -25 36 -38 3 -12 5 -81 3 -154 -3
-120 -5 -133 -25 -155 -28 -29 -29 -54 -4 -67 23 -13 179 -13 203 0 26 14 22
40 -9 65 l-28 22 0 190 c0 145 -3 193 -14 205 -17 22 -71 21 -136 -1z M3458
3284 c-50 -16 -66 -37 -42 -56 45 -38 44 -34 44 -192 0 -150 0 -153 -25 -176
-52 -49 -19 -70 106 -70 120 0 146 22 89 73 l-30 27 0 193 c0 137 -3 196 -12
205 -16 16 -71 14 -130 -4z M1620 2635 c-18 -21 -6 -42 33 -59 55 -22 60 -53
52 -299 -3 -117 -11 -224 -17 -239 -5 -15 -25 -34 -45 -43 -26 -12 -33 -22
-31 -38 3 -21 8 -22 134 -25 112 -2 133 0 145 14 12 14 11 19 -9 33 -13 9 -35
26 -50 38 l-27 21 -3 166 c-2 91 0 172 5 180 6 10 58 -46 198 -211 191 -227
227 -259 270 -243 29 11 34 52 35 330 1 135 5 256 9 270 4 14 23 36 44 49 39
25 48 55 21 65 -30 12 -239 7 -252 -6 -21 -21 -13 -38 23 -55 26 -12 38 -26
45 -52 11 -41 13 -300 2 -317 -4 -7 -70 65 -172 188 -91 110 -178 211 -193
224 -25 21 -38 24 -117 24 -65 0 -91 -4 -100 -15z M3093 2511 c-22 -35 -46
-57 -84 -77 -65 -35 -77 -68 -32 -84 60 -21 58 -15 63 -193 5 -158 6 -167 29
-191 61 -64 199 -49 245 28 16 25 -17 48 -51 35 -45 -17 -73 -11 -84 17 -5 15
-8 86 -7 158 l3 131 55 3 c93 4 102 8 98 45 l-3 32 -75 5 -75 5 -1 55 c0 77
-1 80 -28 80 -17 0 -31 -13 -53 -49z M2592 2422 c-104 -38 -175 -137 -176
-246 0 -75 17 -127 57 -172 51 -59 100 -79 192 -79 92 0 137 19 198 81 89 92
89 260 -2 357 -63 69 -174 93 -269 59z m137 -84 c55 -50 79 -177 51 -263 -24
-71 -107 -99 -165 -53 -84 66 -86 264 -4 322 34 23 90 21 118 -6z M3519 2426
c-143 -51 -213 -237 -141 -376 53 -105 154 -148 266 -116 65 19 126 73 126
111 0 31 -25 33 -77 5 -69 -37 -158 -19 -186 38 -24 46 -30 84 -15 93 7 5 67
9 134 9 80 0 124 4 132 12 30 30 1 150 -46 191 -47 43 -129 56 -193 33z m106
-80 c9 -14 15 -37 13 -53 -3 -28 -4 -28 -75 -31 -72 -3 -73 -2 -73 22 0 13 12
38 26 55 34 40 85 43 109 7z M4101 2419 c0 -15 -3 -42 -6 -60 l-5 -34 11 34
c5 18 8 45 6 60 l-4 26 -2 -26z"/>
</g>
</svg>